HIERARCHY
ROOT Hips
{
	OFFSET 0.000000 0.000000 0.000000
	CHANNELS 6 Xposition Yposition Zposition Zrotation Yrotation Xrotation 
	JOINT LHipJoint
	{
		OFFSET 0.000000 0.000000 0.000000
		CHANNELS 3 Zrotation Yrotation Xrotation
		JOINT LeftUpLeg
		{
			OFFSET 1.363060 -1.794630 0.839290
			CHANNELS 3 Zrotation Yrotation Xrotation
			JOINT LeftLeg
			{
				OFFSET 2.448110 -6.726130 0.000000
				CHANNELS 3 Zrotation Yrotation Xrotation
				JOINT LeftFoot
				{
					OFFSET 2.562200 -7.039590 0.000000
					CHANNELS 3 Zrotation Yrotation Xrotation
					JOINT LeftToeBase
					{
						OFFSET 0.157640 -0.433110 2.322550
						CHANNELS 3 Zrotation Yrotation Xrotation
						End Site
						{
							OFFSET 0.000000 0.000000 0.000000
						}
					}
				}
			}
		}
	}
	JOINT RHipJoint
	{
		OFFSET 0.000000 0.000000 0.000000
		CHANNELS 3 Zrotation Yrotation Xrotation
		JOINT RightUpLeg
		{
			OFFSET -1.305520 -1.794630 0.839290
			CHANNELS 3 Zrotation Yrotation Xrotation
			JOINT RightLeg
			{
				OFFSET -2.542530 -6.985550 0.000000
				CHANNELS 3 Zrotation Yrotation Xrotation
				JOINT RightFoot
				{
					OFFSET -2.568260 -7.056230 0.000000
					CHANNELS 3 Zrotation Yrotation Xrotation
					JOINT RightToeBase
					{
						OFFSET -0.164730 -0.452590 2.363150
						CHANNELS 3 Zrotation Yrotation Xrotation
						End Site
						{
							OFFSET 0.000000 0.000000 0.000000
						}
					}
				}
			}
		}
	}
	JOINT LowerBack
	{
		OFFSET 0.000000 0.000000 0.000000
		CHANNELS 3 Zrotation Yrotation Xrotation
		JOINT Spine
		{
			OFFSET 0.028270 2.035590 -0.193380
			CHANNELS 3 Zrotation Yrotation Xrotation
			JOINT Spine1
			{
				OFFSET 0.056720 2.048850 -0.042750
				CHANNELS 3 Zrotation Yrotation Xrotation
				JOINT Neck
				{
					OFFSET 0.000000 0.000000 0.000000
					CHANNELS 3 Zrotation Yrotation Xrotation
					JOINT Neck1
					{
						OFFSET -0.054170 1.746240 0.172020
						CHANNELS 3 Zrotation Yrotation Xrotation
						JOINT Head
						{
							OFFSET 0.104070 1.761360 -0.123970
							CHANNELS 3 Zrotation Yrotation Xrotation
							End Site
							{
								OFFSET 0.000000 0.000000 0.000000
							}
						}
					}
				}
				JOINT LeftShoulder
				{
					OFFSET 0.000000 0.000000 0.000000
					CHANNELS 3 Zrotation Yrotation Xrotation
					JOINT LeftArm
					{
						OFFSET 3.362410 1.200890 -0.311210
						CHANNELS 3 Zrotation Yrotation Xrotation
						JOINT LeftForeArm
						{
							OFFSET 4.983000 -0.000000 -0.000000
							CHANNELS 3 Zrotation Yrotation Xrotation
							JOINT LeftHand
							{
								OFFSET 3.483560 -0.000000 -0.000000
								CHANNELS 3 Zrotation Yrotation Xrotation
								JOINT LeftFingerBase
								{
									OFFSET 0.000000 0.000000 0.000000
									CHANNELS 3 Zrotation Yrotation Xrotation
									JOINT LeftHandIndex1
									{
										OFFSET 0.715260 -0.000000 -0.000000
										CHANNELS 3 Zrotation Yrotation Xrotation
										End Site
										{
											OFFSET 0.000000 0.000000 0.000000
										}
									}
								}
								JOINT LThumb
								{
									OFFSET 0.000000 0.000000 0.000000
									CHANNELS 3 Zrotation Yrotation Xrotation
									End Site
									{
										OFFSET 0.000000 0.000000 0.000000
									}
								}
							}
						}
					}
				}
				JOINT RightShoulder
				{
					OFFSET 0.000000 0.000000 0.000000
					CHANNELS 3 Zrotation Yrotation Xrotation
					JOINT RightArm
					{
						OFFSET -3.136600 1.374050 -0.404650
						CHANNELS 3 Zrotation Yrotation Xrotation
						JOINT RightForeArm
						{
							OFFSET -5.241900 -0.000000 -0.000000
							CHANNELS 3 Zrotation Yrotation Xrotation
							JOINT RightHand
							{
								OFFSET -3.444170 -0.000000 -0.000000
								CHANNELS 3 Zrotation Yrotation Xrotation
								JOINT RightFingerBase
								{
									OFFSET 0.000000 0.000000 0.000000
									CHANNELS 3 Zrotation Yrotation Xrotation
									JOINT RightHandIndex1
									{
										OFFSET -0.622530 -0.000000 -0.000000
										CHANNELS 3 Zrotation Yrotation Xrotation
										End Site
										{
											OFFSET 0.000000 0.000000 0.000000
										}
									}
								}
								JOINT RThumb
								{
									OFFSET 0.000000 0.000000 0.000000
									CHANNELS 3 Zrotation Yrotation Xrotation
									End Site
									{
										OFFSET 0.000000 0.000000 0.000000
									}
								}
							}
						}
					}
				}
			}
		}
	}
}
MOTION
Frames: 6
Frame Time: 0.008333
0.450300 18.368579 0.595844 -1.680117 0.670197 17.862666 -2.054236 -0.471931 0.894274 -10.610077 4.001907 -38.951089 2.275686 12.875701 37.032910 3.592330 -0.906847 17.669107 0.777100 -5.628400 -15.710000 0.875725 -0.274073 1.167368 18.311174 -10.711367 -44.341243 -1.835409 -13.115648 37.723444 -5.488860 7.533247 19.200119 -0.051000 1.456900 -4.006900 2.680593 -0.276890 11.036345 2.300437 0.006344 -6.740579 1.353239 0.422154 -14.745271 -0.513983 -1.515801 -15.205648 2.896324 -1.107099 21.247785 -1.959300 0.271900 9.437400 -10.493959 0.501270 0.476516 -42.681602 39.387034 63.267679 137.177164 -51.235570 -103.165926 -0.739445 -1.572453 -36.681792 -25.339440 31.295873 -13.408800 -7.125000 0.000000 0.000000 -56.922300 53.795900 -16.368000 13.663254 2.335519 1.260807 46.856465 -45.051894 48.898172 -143.621731 42.121364 -109.217855 1.571944 1.772655 -17.451306 41.316226 0.157633 -1.241200 7.125000 0.000000 0.000000 43.669800 -25.500300 30.497300 
0.448769 18.356004 0.580863 -1.686109 0.638894 17.869656 -2.009354 -0.474702 0.872000 -10.644392 3.985713 -39.069279 2.332728 12.938779 37.200981 3.536931 -0.829085 17.498143 0.821100 -5.781800 -16.152500 0.829399 -0.270083 1.145276 18.341085 -10.622865 -44.433115 -1.893402 -13.179796 37.905108 -5.461602 7.515381 19.017297 -0.058700 1.563900 -4.302000 2.606760 -0.324251 10.911265 2.332446 -0.073593 -6.692538 1.426922 0.396637 -14.692453 -0.447509 -1.447529 -14.677476 2.796370 -1.043476 21.034006 -2.025500 0.296000 9.233900 -10.481646 0.339610 0.391445 -43.664407 38.855864 62.740561 135.846819 -51.965742 -102.252048 -0.735106 -1.537071 -37.415505 -26.549586 31.357278 -14.176400 -7.125000 0.000000 0.000000 -57.914800 53.581900 -16.488700 13.677564 2.459246 1.262755 47.365406 -44.479112 48.863815 -142.992341 42.634757 -108.777384 1.569243 1.725554 -18.027385 41.970561 -0.225055 -1.542100 7.125000 0.000000 0.000000 43.955900 -25.524600 30.904600 
0.446691 18.343101 0.563804 -1.636912 0.565730 17.790844 -1.986430 -0.465879 0.871728 -10.705422 3.960650 -39.112281 2.389930 12.997062 37.396797 3.534143 -0.869716 17.339725 0.795000 -5.691200 -15.891100 0.791591 -0.274088 1.127998 18.258737 -10.500505 -44.431857 -1.948063 -13.239744 38.078755 -5.462726 7.571743 18.915130 -0.050500 1.449800 -3.987500 2.447558 -0.370624 10.919574 2.345996 -0.161496 -6.623530 1.508563 0.371449 -14.681081 -0.386158 -1.382095 -14.154562 2.728694 -0.988841 20.837724 -2.077000 0.319500 9.040700 -10.474564 0.160928 0.301486 -44.736268 38.208332 62.120136 134.297913 -52.770091 -101.162441 -0.709839 -1.496238 -38.285281 -27.386870 31.522424 -14.769700 -7.125000 0.000000 0.000000 -58.723000 53.498400 -16.737500 13.690638 2.599048 1.266279 47.948619 -43.844761 48.898576 -142.325903 43.162552 -108.300702 1.562668 1.671039 -18.558078 42.635055 -0.662863 -1.900700 7.125000 0.000000 0.000000 44.255700 -25.577700 31.291700 
0.441661 18.328448 0.541606 -1.645384 0.597163 17.700724 -1.957042 -0.459551 0.855687 -10.671662 3.857697 -39.137873 2.457496 13.063810 37.581579 3.445705 -0.724943 17.169212 0.826800 -5.801300 -16.209000 0.765705 -0.278086 1.115459 18.244357 -10.359433 -44.428931 -2.011738 -13.301758 38.264183 -5.402921 7.462802 18.728256 -0.053400 1.491700 -4.102800 2.358900 -0.446289 10.924320 2.374594 -0.277482 -6.528131 1.583244 0.331285 -14.624220 -0.345930 -1.284905 -13.489612 2.673310 -0.906694 20.494444 -2.122100 0.349400 8.751500 -10.463729 -0.038676 0.218506 -45.872050 37.473427 61.493449 132.588953 -53.605990 -99.939564 -0.681434 -1.435319 -39.240448 -28.180526 31.967990 -15.455700 -7.125000 0.000000 0.000000 -59.780500 53.585000 -17.407400 13.707955 2.739338 1.274936 48.518987 -43.044535 49.027760 -141.482128 43.799265 -107.703634 1.533122 1.642791 -18.908012 42.928650 -0.720600 -1.944200 7.125000 0.000000 0.000000 44.327500 -25.450300 31.645600 
0.433241 18.314561 0.516128 -1.672726 0.699956 17.677770 -1.912287 -0.470345 0.817091 -10.603006 3.691878 -39.222268 2.521665 13.135276 37.752887 3.350702 -0.570891 17.023103 0.862400 -5.921800 -16.557700 0.731326 -0.272635 1.094063 18.304576 -10.228487 -44.503229 -2.076013 -13.364708 38.437533 -5.284058 7.192611 18.498239 -0.062500 1.612600 -4.436100 2.274892 -0.541279 10.842196 2.425382 -0.423349 -6.437680 1.699263 0.286559 -14.554902 -0.300818 -1.159586 -12.512578 2.566311 -0.811948 19.900394 -2.199400 0.372800 8.285300 -10.442323 -0.253879 0.145152 -47.109438 36.729695 60.857873 130.735633 -54.462883 -98.584388 -0.642090 -1.379194 -40.157792 -28.786863 32.289630 -15.990700 -7.125000 0.000000 0.000000 -60.575000 53.627900 -17.886600 13.727626 2.863998 1.284229 49.102565 -42.142804 49.154319 -140.482519 44.529489 -106.990588 1.511270 1.619635 -19.008377 43.375193 -0.387468 -1.660300 7.125000 0.000000 0.000000 44.255800 -24.873000 32.595300 
0.425040 18.304282 0.497867 -1.761248 0.660090 17.676035 -1.867175 -0.480300 0.781995 -10.497504 3.631628 -39.302761 2.576885 13.196409 37.890934 3.301591 -0.493107 16.943600 0.843900 -5.859400 -16.377100 0.713066 -0.257363 1.072905 18.356303 -9.960537 -44.515428 -2.110865 -13.405185 38.562133 -5.200766 7.045439 18.374849 -0.044900 1.367300 -3.760000 2.198316 -0.581100 10.650768 2.490214 -0.495366 -6.324911 1.824467 0.280474 -14.407869 -0.192937 -0.986276 -11.288934 2.370309 -0.679836 19.027930 -2.332300 0.401500 7.646300 -10.416026 -0.471867 0.087512 -48.374009 35.952656 60.298081 128.834576 -55.283687 -97.166012 -0.584423 -1.344638 -41.012631 -28.892703 32.322140 -16.097500 -7.125000 0.000000 0.000000 -60.701200 53.598600 -17.900500 13.756464 2.955752 1.296457 49.654156 -41.192776 49.259205 -139.612015 45.149937 -106.350487 1.512989 1.572537 -19.196022 44.210358 -0.341981 -1.620700 7.125000 0.000000 0.000000 44.343500 -24.337600 33.752200 
